# Blender v2.79 (sub 0) OBJ File: 'stageLayout2.blend'
# www.blender.org
o audienceWallFront
v 0.000003 0.191768 5.445032
v 1.212965 0.191768 5.373525
v 2.414246 0.191768 5.159692
v 3.592276 0.191768 4.805596
v -3.592306 0.191768 4.805583
v -2.414279 0.191768 5.159684
v -1.213002 0.191768 5.373519
v 0.000003 1.191768 5.445032
v 1.212965 1.191768 5.373525
v 2.414246 1.191768 5.159692
v 3.592276 1.191768 4.805596
v -3.592306 1.191768 4.805583
v -2.414279 1.191768 5.159684
v -1.213002 1.191768 5.373519
vt 0.894840 0.065264
vt 0.894840 0.005096
vt 0.894840 0.005096
vt 0.894840 0.065264
vt 0.894840 0.196257
vt 0.894840 0.129189
vt 0.894840 0.129189
vt 0.894840 0.196257
vt 0.991076 0.495271
vt 0.991076 0.431346
vt 0.991076 0.431346
vt 0.991076 0.495271
vt 0.991076 0.364278
vt 0.991076 0.364278
vt 0.991076 0.555437
vt 0.991076 0.555437
vn -0.0589 0.0000 0.9983
vn -0.2879 0.0000 0.9577
vn 0.1752 0.0000 0.9845
vn -0.1753 0.0000 0.9845
vn 0.2879 0.0000 0.9577
vn 0.0589 0.0000 0.9983
s off
f 7/1/1 1/2/1 8/3/1 14/4/1
f 5/5/2 6/6/2 13/7/2 12/8/2
f 2/9/3 3/10/3 10/11/3 9/12/3
f 6/6/4 7/1/4 14/4/4 13/7/4
f 3/10/5 4/13/5 11/14/5 10/11/5
f 1/15/6 2/9/6 9/12/6 8/16/6
o audienceWall
v 0.000014 2.532027 10.428805
v 2.729179 2.532027 10.267914
v 5.432060 2.532027 9.786791
v 8.082629 2.532027 8.990075
v 3.592276 0.191768 4.805596
v -8.082681 2.532027 8.990046
v -3.592306 0.191768 4.805583
v -5.432121 2.532027 9.786772
v -2.729246 2.532027 10.267901
v 0.000014 3.532028 10.428805
v 2.729179 3.532028 10.267914
v 5.432060 3.532028 9.786791
v 8.082629 3.532028 8.990075
v 3.592276 1.191768 4.805596
v -8.082681 3.532028 8.990046
v -3.592306 1.191768 4.805583
v -5.432121 3.532028 9.786772
v -2.729246 3.532028 10.267901
vt 0.816450 0.129189
vt 0.816450 0.196257
vt 0.816450 0.196257
vt 0.816450 0.129189
vt 0.912687 0.431346
vt 0.912687 0.495271
vt 0.912687 0.495271
vt 0.912687 0.431346
vt 0.816450 0.065264
vt 0.816450 0.065264
vt 0.912687 0.364278
vt 0.912687 0.364278
vt 0.912687 0.555437
vt 0.912687 0.555437
vt 0.991076 0.364278
vt 0.991076 0.364278
vt 0.816450 0.005096
vt 0.816450 0.005096
vt 0.894840 0.196257
vt 0.894840 0.196257
vn 0.2879 0.0000 -0.9577
vn -0.1752 0.0000 -0.9845
vn 0.1753 0.0000 -0.9845
vn -0.2879 0.0000 -0.9577
vn -0.0589 0.0000 -0.9983
vn -0.6818 0.0000 0.7316
vn 0.0589 0.0000 -0.9983
vn 0.6817 0.0000 0.7316
s off
f 22/17/7 20/18/7 29/19/7 31/20/7
f 17/21/8 16/22/8 25/23/8 26/24/8
f 23/25/9 22/17/9 31/20/9 32/26/9
f 18/27/10 17/21/10 26/24/10 27/28/10
f 16/22/11 15/29/11 24/30/11 25/23/11
f 19/31/12 18/27/12 27/28/12 28/32/12
f 15/33/13 23/25/13 32/26/13 24/34/13
f 20/18/14 21/35/14 30/36/14 29/19/14
o audienceBase
v 0.000014 2.532027 10.428805
v 0.000003 0.191768 5.445032
v 2.729179 2.532027 10.267914
v 1.212965 0.191768 5.373525
v 5.432060 2.532027 9.786791
v 2.414246 0.191768 5.159692
v 8.082629 2.532027 8.990075
v 3.592276 0.191768 4.805596
v -8.082681 2.532027 8.990046
v -3.592306 0.191768 4.805583
v -5.432121 2.532027 9.786772
v -2.414279 0.191768 5.159684
v -2.729246 2.532027 10.267901
v -1.213002 0.191768 5.373519
vt 0.816450 0.196257
vt 0.816450 0.129189
vt 0.894840 0.129189
vt 0.894840 0.196257
vt 0.816450 0.065264
vt 0.894840 0.065264
vt 0.816450 0.005096
vt 0.894840 0.005096
vt 0.912687 0.555437
vt 0.912687 0.495271
vt 0.991076 0.495271
vt 0.991076 0.555437
vt 0.912687 0.431346
vt 0.991076 0.431346
vt 0.912687 0.364278
vt 0.991076 0.364278
vn 0.1163 0.9148 -0.3868
vn 0.0733 0.9084 -0.4116
vn 0.0251 0.9049 -0.4249
vn -0.0250 0.9049 -0.4249
vn -0.0733 0.9084 -0.4116
vn -0.1163 0.9148 -0.3868
s off
f 41/37/15 43/38/15 44/39/15 42/40/15
f 43/38/16 45/41/16 46/42/16 44/39/16
f 33/43/17 34/44/17 46/42/17 45/41/17
f 33/45/18 35/46/18 36/47/18 34/48/18
f 35/46/19 37/49/19 38/50/19 36/47/19
f 37/49/20 39/51/20 40/52/20 38/50/20
