# Blender v2.79 (sub 0) OBJ File: 'stageLayout2.blend'
# www.blender.org
o audienceWall
v 0.000014 2.532027 10.428805
v 0.000003 0.191768 5.445032
v 2.729179 2.532027 10.267914
v 1.212965 0.191768 5.373525
v 5.432060 2.532027 9.786791
v 2.414246 0.191768 5.159692
v 8.082629 2.532027 8.990075
v 3.592276 0.191768 4.805596
v -8.082681 2.532027 8.990046
v -3.592306 0.191768 4.805583
v -5.432121 2.532027 9.786772
v -2.414279 0.191768 5.159684
v -2.729246 2.532027 10.267901
v -1.213002 0.191768 5.373519
v 0.000014 3.532028 10.428805
v 0.000003 1.191768 5.445032
v 2.729179 3.532028 10.267914
v 1.212965 1.191768 5.373525
v 5.432060 3.532028 9.786791
v 2.414246 1.191768 5.159692
v 8.082629 3.532028 8.990075
v 3.592276 1.191768 4.805596
v -8.082681 3.532028 8.990046
v -3.592306 1.191768 4.805583
v -5.432121 3.532028 9.786772
v -2.414279 1.191768 5.159684
v -2.729246 3.532028 10.267901
v -1.213002 1.191768 5.373519
vt 0.894840 0.005096
vt 0.894840 0.065264
vt 0.894840 0.065264
vt 0.816450 0.196257
vt 0.816450 0.129189
vt 0.816450 0.129189
vt 0.912687 0.495271
vt 0.912687 0.431346
vt 0.912687 0.431346
vt 0.894840 0.129189
vt 0.894840 0.196257
vt 0.894840 0.196257
vt 0.991076 0.431346
vt 0.991076 0.495271
vt 0.991076 0.495271
vt 0.816450 0.065264
vt 0.816450 0.065264
vt 0.912687 0.364278
vt 0.912687 0.364278
vt 0.912687 0.555437
vt 0.912687 0.495271
vt 0.894840 0.129189
vt 0.991076 0.364278
vt 0.991076 0.431346
vt 0.991076 0.555437
vt 0.991076 0.555437
vt 0.991076 0.364278
vt 0.816450 0.005096
vt 0.816450 0.005096
vt 0.816450 0.196257
vt 0.894840 0.005096
vt 0.912687 0.555437
vn -0.0589 0.0000 0.9983
vn 0.2879 0.0000 -0.9577
vn -0.1752 0.0000 -0.9845
vn -0.2879 0.0000 0.9577
vn 0.1752 0.0000 0.9845
vn 0.1753 0.0000 -0.9845
vn -0.2879 0.0000 -0.9577
vn -0.0589 0.0000 -0.9983
vn -0.1753 0.0000 0.9845
vn 0.2879 0.0000 0.9577
vn 0.0588 0.0000 0.9983
vn -0.6818 0.0000 0.7316
vn 0.0589 0.0000 -0.9983
vn 0.6817 0.0000 0.7316
vn 0.0589 0.0000 0.9983
s off
f 2/1/1 28/2/1 14/3/1
f 9/4/2 25/5/2 11/6/2
f 3/7/3 19/8/3 5/9/3
f 12/10/4 24/11/4 10/12/4
f 6/13/5 18/14/5 4/15/5
f 11/6/6 27/16/6 13/17/6
f 5/9/7 21/18/7 7/19/7
f 1/20/8 17/21/8 3/7/8
f 14/3/9 26/22/9 12/10/9
f 8/23/10 20/24/10 6/13/10
f 4/15/11 16/25/11 2/26/11
f 7/19/12 22/27/12 8/23/12
f 13/17/13 15/28/13 1/29/13
f 9/4/14 24/11/14 23/30/14
f 2/1/1 16/31/1 28/2/1
f 9/4/2 23/30/2 25/5/2
f 3/7/3 17/21/3 19/8/3
f 12/10/4 26/22/4 24/11/4
f 6/13/5 20/24/5 18/14/5
f 11/6/6 25/5/6 27/16/6
f 5/9/7 19/8/7 21/18/7
f 1/20/8 15/32/8 17/21/8
f 14/3/9 28/2/9 26/22/9
f 8/23/10 22/27/10 20/24/10
f 4/15/15 18/14/15 16/25/15
f 7/19/12 21/18/12 22/27/12
f 13/17/13 27/16/13 15/28/13
f 9/4/14 10/12/14 24/11/14
o audienceBase
v 0.000014 2.532027 10.428805
v 0.000003 0.191768 5.445032
v 2.729179 2.532027 10.267914
v 1.212965 0.191768 5.373525
v 5.432060 2.532027 9.786791
v 2.414246 0.191768 5.159692
v 8.082629 2.532027 8.990075
v 3.592276 0.191768 4.805596
v -8.082681 2.532027 8.990046
v -3.592306 0.191768 4.805583
v -5.432121 2.532027 9.786772
v -2.414279 0.191768 5.159684
v -2.729246 2.532027 10.267901
v -1.213002 0.191768 5.373519
vt 0.816450 0.129189
vt 0.894840 0.196257
vt 0.816450 0.196257
vt 0.816450 0.065264
vt 0.894840 0.129189
vt 0.816450 0.005096
vt 0.894840 0.065264
vt 0.912687 0.555437
vt 0.991076 0.495271
vt 0.991076 0.555437
vt 0.912687 0.495271
vt 0.991076 0.431346
vt 0.912687 0.431346
vt 0.991076 0.364278
vt 0.894840 0.005096
vt 0.912687 0.364278
vn 0.1163 0.9148 -0.3868
vn 0.0733 0.9084 -0.4116
vn 0.0251 0.9049 -0.4249
vn -0.0250 0.9049 -0.4249
vn -0.0733 0.9084 -0.4116
vn -0.1163 0.9148 -0.3868
s off
f 39/33/16 38/34/16 37/35/16
f 41/36/17 40/37/17 39/33/17
f 29/38/18 42/39/18 41/36/18
f 29/40/19 32/41/19 30/42/19
f 31/43/20 34/44/20 32/41/20
f 33/45/21 36/46/21 34/44/21
f 39/33/16 40/37/16 38/34/16
f 41/36/17 42/39/17 40/37/17
f 29/38/18 30/47/18 42/39/18
f 29/40/19 31/43/19 32/41/19
f 31/43/20 33/45/20 34/44/20
f 33/45/21 35/48/21 36/46/21
